<?xml version="1.0" encoding="UTF-8"?>
<svg id="Layer_1" data-name="Layer 1" xmlns="http://www.w3.org/2000/svg" viewBox="0 0 1281.71 310.07">
  <defs>
    <style>
      .cls-1, .cls-2, .cls-3, .cls-4 {
        stroke: #fff;
        stroke-miterlimit: 10;
      }

      .cls-1, .cls-3 {
        stroke-width: 3px;
      }

      .cls-1, .cls-4 {
        fill: #fff;
      }

      .cls-2, .cls-3 {
        fill: none;
      }

      .cls-4 {
        stroke-width: 2px;
      }
    </style>
  </defs>
  <rect class="cls-2" x="56.75" y="56.75" width="196.9" height="196.9" transform="translate(-64.29 155.2) rotate(-45)"/>
  <g>
    <rect class="cls-3" x="47.97" y="47.97" width="214.12" height="214.12" transform="translate(-64.22 155.04) rotate(-45)"/>
    <path class="cls-1" d="M128.75,109.72v-.05h18.68v-27.63h-18.68c-40.31,0-73,32.68-73,73s32.68,73,73,73h18.68v-27.63h-18.68v-.05c-25.03,0-45.32-20.29-45.32-45.32s20.29-45.32,45.32-45.32Z"/>
    <path class="cls-1" d="M179.77,82.04h-18.68v27.63h18.68v.05c25.03,0,45.32,20.29,45.32,45.32,0,22.18-15.94,40.62-36.98,44.54v-78.67h-27.02v107.13h18.68c40.31,0,73-32.68,73-73s-32.68-73-73-73Z"/>
    <rect class="cls-3" x="46.91" y="46.91" width="216.25" height="216.25" transform="translate(-64.22 155.04) rotate(-45)"/>
  </g>
  <path class="cls-4" d="M388.08,87.8c-4.43,0-8.52.67-12.27,2-3.75,1.34-6.96,3.28-9.64,5.83-2.68,2.55-4.78,5.7-6.28,9.44-1.51,3.75-2.26,8.03-2.26,12.84s.69,8.98,2.06,12.6c1.37,3.62,3.35,6.65,5.92,9.08,2.57,2.43,5.71,4.26,9.41,5.5,3.7,1.24,7.9,1.85,12.6,1.85,3.37,0,6.8-.24,10.31-.73,3.5-.49,6.78-1.19,9.84-2.13v12.81c-3.1.81-6.45,1.45-10.04,1.91-3.59.46-7.31.7-11.17.7-7.54,0-14.16-.98-19.88-2.95-5.72-1.96-10.49-4.74-14.33-8.32-3.83-3.58-6.71-7.87-8.64-12.87-1.93-5-2.89-10.51-2.89-16.55s1.03-11.94,3.09-17.25c2.06-5.3,5.03-9.9,8.91-13.78,3.88-3.89,8.73-6.94,14.56-9.17,5.83-2.23,12.42-3.36,19.78-3.4,3.77,0,7.34.23,10.7.7,3.37.47,6.4,1.12,9.11,1.97v12.63c-3.55-1.01-6.85-1.72-9.91-2.13-3.06-.4-6.05-.61-8.98-.61Z"/>
  <path class="cls-4" d="M409.43,99.16h16.89l9.64,21.31c3.63,8.1,6.2,14.09,7.71,17.97h.27c1.11-3.04,3.46-8.66,7.05-16.88l9.97-22.41h17.09l-41.49,87.08h-15.56l14.76-31.52-26.33-55.56Z"/>
  <path class="cls-4" d="M549.24,127.58c0,5.3-.84,10-2.53,14.09-1.69,4.09-3.89,7.45-6.62,10.08-2.73,2.63-5.8,4.58-9.21,5.86-3.41,1.28-6.85,1.91-10.31,1.91-2.44,0-4.63-.27-6.58-.82-1.95-.55-3.66-1.22-5.12-2.03-1.46-.81-2.69-1.66-3.69-2.55-1-.89-1.78-1.68-2.36-2.37h-.27l-1.53,6.25h-13.03c.09-1.74.17-3.9.23-6.47.07-2.57.1-5.01.1-7.32v-74.14h15.76v24.47c0,1.74-.01,3.35-.03,4.83-.02,1.48-.06,2.62-.1,3.43h.13c1.02-.65,2.13-1.28,3.32-1.88s2.5-1.15,3.92-1.64c1.42-.49,2.95-.87,4.59-1.15,1.64-.28,3.37-.43,5.19-.43,3.59,0,7.08.6,10.47,1.79,3.39,1.19,6.4,3.02,9.04,5.47,2.64,2.45,4.73,5.59,6.28,9.41,1.55,3.83,2.33,8.23,2.33,13.21ZM532.95,128.3c0-3.68-.49-6.85-1.46-9.5-.98-2.65-2.25-4.68-3.82-6.07-1.57-1.4-3.21-2.34-4.92-2.82-1.71-.49-3.4-.73-5.09-.73-2.31,0-4.65.43-7.05,1.28s-4.57,1.98-6.52,3.4v28.18c.62.65,1.38,1.33,2.29,2.03.91.71,1.93,1.36,3.06,1.94,1.13.59,2.36,1.07,3.69,1.46,1.33.39,2.75.58,4.26.58,2.57,0,4.82-.48,6.75-1.43,1.93-.95,3.55-2.3,4.85-4.04,1.31-1.74,2.29-3.82,2.96-6.22.66-2.41,1-5.09,1-8.05Z"/>
  <path class="cls-4" d="M596.38,147.92c3.06,0,6.25-.28,9.57-.85,3.32-.57,6.69-1.38,10.11-2.43v11.48c-2.04.81-5.16,1.58-9.37,2.31-4.21.73-8.58,1.09-13.1,1.09s-8.9-.54-13-1.61c-4.1-1.07-7.68-2.8-10.74-5.19-3.06-2.39-5.48-5.48-7.28-9.29-1.8-3.8-2.69-8.42-2.69-13.85s.84-10.02,2.53-14.03c1.68-4.01,3.94-7.33,6.78-9.96,2.84-2.63,6.08-4.6,9.74-5.92,3.66-1.31,7.43-1.97,11.34-1.97s7.83.57,11.27,1.7c3.43,1.13,6.4,2.91,8.91,5.34,2.5,2.43,4.45,5.56,5.85,9.38s2.09,8.35,2.09,13.57c-.04,2.02-.11,3.75-.2,5.16h-42.22c.22,2.71.89,5.03,1.99,6.95,1.11,1.92,2.56,3.48,4.35,4.68,1.8,1.19,3.89,2.06,6.28,2.61s4.99.82,7.78.82ZM590.06,108.93c-1.99,0-3.77.33-5.32,1-1.55.67-2.89,1.58-4.02,2.73s-2.03,2.5-2.69,4.04c-.66,1.54-1.11,3.18-1.33,4.92h25.33c0-1.74-.26-3.38-.76-4.92-.51-1.54-1.26-2.88-2.26-4.04s-2.24-2.06-3.72-2.73c-1.49-.67-3.22-1-5.22-1Z"/>
  <path class="cls-4" d="M671.31,110.57h-1.33c-4.83,0-9.08.66-12.73,1.97-3.66,1.32-6.48,3.33-8.48,6.04v39.41h-15.76v-58.84h13.03l1.46,8.2h.27c1.86-3,4.42-5.35,7.68-7.07,3.26-1.72,7.17-2.58,11.73-2.58,1.6,0,2.97.08,4.12.24v12.63Z"/>
  <path class="cls-4" d="M806.22,70.53h16.55v15.61h-16.55v-15.61ZM806.62,99.61h15.76v58.84h-15.76v-58.84Z"/>
  <path class="cls-4" d="M868.58,141.39c0-1.25-.39-2.29-1.16-3.1-.78-.81-1.81-1.49-3.09-2.03-1.29-.55-2.76-1.02-4.42-1.43-1.66-.4-3.4-.81-5.22-1.21-2.31-.57-4.52-1.22-6.65-1.97-2.13-.75-4-1.73-5.62-2.95-1.62-1.21-2.9-2.74-3.86-4.58-.95-1.84-1.43-4.1-1.43-6.77,0-3.28.64-6.12,1.93-8.53,1.28-2.41,3.03-4.4,5.22-5.98,2.19-1.58,4.74-2.75,7.65-3.52,2.9-.77,5.97-1.15,9.21-1.15,3.94,0,7.65.29,11.1.88,3.46.59,6.58,1.35,9.37,2.28v11.72c-1.46-.44-3-.86-4.62-1.24-1.62-.38-3.26-.72-4.92-1-1.66-.28-3.31-.52-4.95-.7-1.64-.18-3.19-.27-4.65-.27-1.86,0-3.44.16-4.72.49-1.29.32-2.33.76-3.12,1.31s-1.37,1.17-1.73,1.88c-.36.71-.53,1.45-.53,2.22,0,1.34.39,2.43,1.16,3.28.77.85,1.85,1.54,3.22,2.06,1.37.53,2.81.96,4.32,1.31,1.51.34,2.97.68,4.39,1,2.22.49,4.43,1.07,6.65,1.76,2.22.69,4.21,1.65,5.98,2.88,1.77,1.24,3.22,2.83,4.35,4.8,1.13,1.96,1.7,4.46,1.7,7.5,0,3.32-.69,6.21-2.06,8.68-1.37,2.47-3.29,4.52-5.75,6.16s-5.41,2.85-8.84,3.64c-3.44.79-7.21,1.18-11.34,1.18s-7.75-.29-11-.88c-3.26-.59-5.95-1.33-8.08-2.22v-11.6c3.46,1.17,6.65,1.97,9.57,2.4s5.65.64,8.18.64c1.95,0,3.77-.13,5.45-.39,1.68-.26,3.13-.68,4.35-1.24,1.22-.57,2.18-1.28,2.89-2.16.71-.87,1.06-1.91,1.06-3.13Z"/>
  <path class="cls-4" d="M944.18,157.18c-1.99.77-4.43,1.43-7.31,1.97-2.88.55-5.92.82-9.11.82-4.65,0-9-.61-13.03-1.82-4.03-1.21-7.56-3.06-10.57-5.53-3.01-2.47-5.39-5.6-7.11-9.38-1.73-3.78-2.59-8.21-2.59-13.27,0-5.67,1-10.53,2.99-14.57,1.99-4.05,4.58-7.34,7.75-9.87,3.17-2.53,6.74-4.39,10.7-5.59,3.97-1.19,7.88-1.79,11.73-1.79,2.88,0,5.65.23,8.31.7,2.66.47,5.07,1.1,7.25,1.91v11.72c-1.95-.77-4.02-1.39-6.22-1.85-2.19-.46-4.55-.7-7.08-.7s-4.94.36-7.25,1.06c-2.31.71-4.34,1.83-6.12,3.37-1.77,1.54-3.18,3.57-4.22,6.1-1.04,2.53-1.56,5.58-1.56,9.14,0,2.59.4,5.03,1.2,7.32.8,2.29,1.96,4.24,3.49,5.86,1.53,1.62,3.48,2.93,5.85,3.92,2.37.99,5.17,1.49,8.41,1.49,2.88,0,5.5-.26,7.85-.79,2.35-.53,4.56-1.17,6.65-1.94v11.72Z"/>
  <path class="cls-4" d="M1019.24,129.06c0,4.62-.75,8.83-2.26,12.63-1.51,3.81-3.67,7.07-6.48,9.78-2.82,2.71-6.22,4.81-10.21,6.28-3.99,1.48-8.44,2.22-13.36,2.22s-9.59-.74-13.6-2.22c-4.01-1.48-7.41-3.57-10.21-6.28-2.79-2.71-4.93-5.97-6.42-9.78-1.49-3.8-2.23-8.02-2.23-12.63s.75-8.82,2.26-12.63c1.51-3.8,3.67-7.06,6.48-9.78,2.81-2.71,6.22-4.81,10.21-6.28,3.99-1.48,8.44-2.22,13.36-2.22s9.58.74,13.6,2.22c4.01,1.48,7.41,3.57,10.21,6.28,2.79,2.71,4.93,5.97,6.42,9.78,1.48,3.81,2.23,8.02,2.23,12.63ZM1002.95,129.06c0-3.12-.4-5.87-1.2-8.26-.8-2.39-1.91-4.39-3.32-6.01-1.42-1.62-3.12-2.83-5.12-3.64-1.99-.81-4.17-1.21-6.52-1.21s-4.44.41-6.42,1.21c-1.97.81-3.67,2.02-5.09,3.64-1.42,1.62-2.53,3.62-3.32,6.01-.8,2.39-1.2,5.14-1.2,8.26s.4,5.87,1.2,8.26c.8,2.39,1.92,4.38,3.36,5.98,1.44,1.6,3.15,2.81,5.12,3.64,1.97.83,4.13,1.24,6.48,1.24s4.5-.41,6.45-1.24c1.95-.83,3.63-2.04,5.05-3.64,1.42-1.6,2.53-3.59,3.32-5.98.8-2.39,1.2-5.14,1.2-8.26Z"/>
  <path class="cls-4" d="M1090.77,99.61l-24.93,58.84h-15.62l-25-58.84h16.62l8.98,22.47c2.57,6.32,4.92,12.63,7.05,18.95h.27c1.86-5.47,4.17-11.66,6.91-18.58l8.98-22.83h16.75Z"/>
  <path class="cls-4" d="M1133.26,148.37c3.06,0,6.25-.28,9.57-.85,3.32-.57,6.69-1.38,10.11-2.43v11.48c-2.04.81-5.16,1.58-9.37,2.31-4.21.73-8.58,1.09-13.1,1.09s-8.9-.54-13-1.61c-4.1-1.07-7.68-2.8-10.74-5.19-3.06-2.39-5.48-5.48-7.28-9.29-1.8-3.8-2.69-8.42-2.69-13.85s.84-10.02,2.53-14.03c1.68-4.01,3.94-7.33,6.78-9.96,2.84-2.63,6.08-4.6,9.74-5.92,3.66-1.31,7.43-1.97,11.34-1.97s7.83.57,11.27,1.7c3.43,1.13,6.4,2.91,8.91,5.34,2.5,2.43,4.45,5.56,5.85,9.38,1.4,3.83,2.09,8.35,2.09,13.57-.04,2.02-.11,3.75-.2,5.16h-42.22c.22,2.71.89,5.03,1.99,6.95,1.11,1.92,2.56,3.48,4.35,4.68,1.8,1.19,3.89,2.06,6.28,2.61,2.39.55,4.99.82,7.78.82ZM1126.94,109.39c-1.99,0-3.77.33-5.32,1-1.55.67-2.89,1.58-4.02,2.73s-2.03,2.5-2.69,4.04c-.66,1.54-1.11,3.18-1.33,4.92h25.33c0-1.74-.26-3.38-.76-4.92-.51-1.54-1.26-2.88-2.26-4.04s-2.24-2.06-3.72-2.73c-1.49-.67-3.22-1-5.22-1Z"/>
  <path class="cls-4" d="M1208.19,111.03h-1.33c-4.83,0-9.08.66-12.73,1.97-3.66,1.32-6.48,3.33-8.48,6.04v39.41h-15.76v-58.84h13.03l1.46,8.2h.27c1.86-3,4.42-5.35,7.68-7.07,3.26-1.72,7.17-2.58,11.73-2.58,1.6,0,2.97.08,4.12.24v12.63Z"/>
  <path class="cls-4" d="M1211.52,99.61h16.89l9.64,21.31c3.63,8.1,6.21,14.09,7.71,17.97h.27c1.11-3.04,3.46-8.66,7.05-16.88l9.97-22.41h17.09l-41.49,87.08h-15.56l14.76-31.52-26.33-55.56Z"/>
  <path class="cls-4" d="M594.67,215.83c0-1.6-.37-2.9-1.1-3.89-.73-.99-1.73-1.8-3-2.43-1.26-.63-2.68-1.14-4.25-1.53-1.57-.39-3.23-.78-4.96-1.15-2.29-.53-4.48-1.17-6.57-1.91-2.09-.74-3.92-1.76-5.51-3.06-1.59-1.3-2.85-2.96-3.79-4.97-.94-2.01-1.41-4.52-1.41-7.54,0-3.33.54-6.22,1.63-8.69,1.09-2.46,2.56-4.51,4.43-6.12,1.87-1.62,4.06-2.83,6.57-3.63s5.34-1.2,8.49-1.2,6.3.33,9.48.99,5.91,1.51,8.2,2.54v9.89c-3.06-1.29-5.99-2.22-8.79-2.8-2.81-.58-5.44-.87-7.91-.87-3.56,0-6.3.69-8.22,2.07-1.93,1.38-2.89,3.45-2.89,6.22,0,1.6.32,2.92.95,3.96.63,1.04,1.49,1.89,2.58,2.57,1.09.68,2.34,1.22,3.75,1.63,1.41.41,2.91.79,4.5,1.13,2.5.57,4.89,1.22,7.16,1.95,2.28.74,4.3,1.77,6.06,3.09,1.76,1.32,3.16,3.04,4.19,5.16,1.03,2.12,1.54,4.83,1.54,8.13s-.59,6.33-1.76,8.81c-1.18,2.48-2.84,4.53-5,6.15-2.16,1.62-4.78,2.82-7.87,3.6s-6.47,1.18-10.14,1.18c-3.2,0-6.35-.34-9.45-1.01-3.1-.67-5.68-1.63-7.74-2.85v-9.75c2.91,1.35,5.74,2.33,8.51,2.94,2.76.61,5.61.92,8.55.92,1.7,0,3.38-.15,5.02-.45,1.65-.3,3.12-.81,4.43-1.53,1.31-.72,2.36-1.7,3.15-2.94.79-1.24,1.19-2.77,1.19-4.59Z"/>
  <path class="cls-4" d="M672.6,202.41c0,4.8-.64,9.21-1.92,13.21-1.28,4-3.14,7.45-5.6,10.34-2.45,2.89-5.47,5.13-9.04,6.74-3.57,1.6-7.63,2.4-12.19,2.4s-8.62-.8-12.19-2.4c-3.57-1.6-6.58-3.85-9.04-6.74-2.45-2.89-4.32-6.34-5.6-10.34s-1.92-8.41-1.92-13.21.64-9.21,1.92-13.21,3.14-7.45,5.6-10.34c2.45-2.89,5.47-5.13,9.04-6.74,3.57-1.6,7.63-2.4,12.19-2.4s8.62.8,12.19,2.4c3.57,1.6,6.58,3.85,9.04,6.74,2.45,2.89,4.32,6.34,5.6,10.34,1.28,4,1.92,8.41,1.92,13.21ZM661.45,202.41c0-3.83-.44-7.18-1.32-10.06-.88-2.87-2.1-5.27-3.66-7.18-1.56-1.91-3.41-3.34-5.55-4.29-2.15-.94-4.5-1.41-7.05-1.41s-4.91.47-7.05,1.41c-2.15.94-4,2.37-5.55,4.29-1.56,1.92-2.78,4.31-3.66,7.18s-1.32,6.23-1.32,10.06.44,7.18,1.32,10.06,2.1,5.26,3.66,7.16c1.56,1.9,3.41,3.33,5.55,4.29,2.14.96,4.5,1.44,7.05,1.44s4.91-.48,7.05-1.44c2.14-.96,4-2.39,5.55-4.29,1.56-1.9,2.78-4.29,3.66-7.16.88-2.87,1.32-6.22,1.32-10.06Z"/>
  <path class="cls-4" d="M694.86,170.9v53.37h27.59v9.66h-38.39v-63.02h10.8Z"/>
  <path class="cls-4" d="M757.01,235.1c-3.09,0-5.86-.32-8.33-.97s-4.64-1.57-6.52-2.78c-1.88-1.21-3.48-2.68-4.8-4.43s-2.38-3.71-3.17-5.91c-.65-1.76-1.11-3.7-1.39-5.84-.28-2.14-.42-4.52-.42-7.16v-37.12h10.8v36.08c0,4.46.5,7.95,1.5,10.46,1.12,2.8,2.75,4.81,4.89,6.05,2.14,1.24,4.67,1.86,7.58,1.86s5.44-.62,7.58-1.86c2.14-1.24,3.78-3.26,4.89-6.05,1-2.51,1.5-6,1.5-10.46v-36.08h10.8v37.12c0,2.64-.14,5.02-.42,7.16-.28,2.14-.74,4.08-1.39,5.84-.79,2.2-1.86,4.17-3.2,5.91-1.34,1.74-2.97,3.22-4.89,4.43-1.93,1.21-4.14,2.14-6.63,2.78-2.5.64-5.29.97-8.37.97Z"/>
  <path class="cls-4" d="M819.91,233.92h-10.8v-53.37h-19.04v-9.66h48.84v9.66h-19v53.37Z"/>
  <path class="cls-4" d="M847.29,233.92v-63.02h10.8v63.02h-10.8Z"/>
  <path class="cls-4" d="M927.02,202.41c0,4.8-.64,9.21-1.92,13.21-1.28,4-3.14,7.45-5.6,10.34-2.45,2.89-5.47,5.13-9.04,6.74s-7.63,2.4-12.19,2.4-8.62-.8-12.19-2.4c-3.57-1.6-6.58-3.85-9.04-6.74-2.45-2.89-4.32-6.34-5.6-10.34s-1.92-8.41-1.92-13.21.64-9.21,1.92-13.21,3.14-7.45,5.6-10.34c2.45-2.89,5.47-5.13,9.04-6.74s7.63-2.4,12.19-2.4,8.62.8,12.19,2.4c3.57,1.6,6.58,3.85,9.04,6.74,2.45,2.89,4.32,6.34,5.6,10.34,1.28,4,1.92,8.41,1.92,13.21ZM915.87,202.41c0-3.83-.44-7.18-1.32-10.06-.88-2.87-2.1-5.27-3.66-7.18-1.56-1.91-3.41-3.34-5.55-4.29-2.15-.94-4.5-1.41-7.05-1.41s-4.91.47-7.05,1.41c-2.15.94-4,2.37-5.55,4.29-1.56,1.92-2.78,4.31-3.66,7.18s-1.32,6.23-1.32,10.06.44,7.18,1.32,10.06,2.1,5.26,3.66,7.16c1.56,1.9,3.41,3.33,5.55,4.29,2.14.96,4.5,1.44,7.05,1.44s4.91-.48,7.05-1.44c2.14-.96,4-2.39,5.55-4.29,1.56-1.9,2.78-4.29,3.66-7.16.88-2.87,1.32-6.22,1.32-10.06Z"/>
  <path class="cls-4" d="M969.21,200.19c4.23,6.44,7.67,12.15,10.31,17.15h.26c-.35-8.2-.53-14.16-.53-17.9v-28.54h10.8v63.02h-11.33l-19.22-29.02c-3.38-5.02-6.88-10.85-10.49-17.48h-.26c.35,7.72.53,13.71.53,17.95v28.54h-10.8v-63.02h11.33l19.39,29.3Z"/>
  <path class="cls-4" d="M1033.17,215.83c0-1.6-.37-2.9-1.1-3.89-.73-.99-1.73-1.8-3-2.43-1.26-.63-2.68-1.14-4.25-1.53-1.57-.39-3.23-.78-4.96-1.15-2.29-.53-4.48-1.17-6.57-1.91-2.09-.74-3.92-1.76-5.51-3.06-1.59-1.3-2.85-2.96-3.79-4.97-.94-2.01-1.41-4.52-1.41-7.54,0-3.33.54-6.22,1.63-8.69,1.09-2.46,2.56-4.51,4.43-6.12,1.87-1.62,4.06-2.83,6.57-3.63s5.34-1.2,8.49-1.2,6.3.33,9.48.99,5.91,1.51,8.2,2.54v9.89c-3.06-1.29-5.99-2.22-8.79-2.8-2.81-.58-5.44-.87-7.91-.87-3.56,0-6.3.69-8.22,2.07-1.92,1.38-2.89,3.45-2.89,6.22,0,1.6.32,2.92.95,3.96.63,1.04,1.49,1.89,2.58,2.57,1.09.68,2.34,1.22,3.75,1.63,1.41.41,2.91.79,4.5,1.13,2.5.57,4.89,1.22,7.16,1.95,2.28.74,4.3,1.77,6.06,3.09,1.76,1.32,3.16,3.04,4.19,5.16,1.03,2.12,1.54,4.83,1.54,8.13s-.59,6.33-1.76,8.81c-1.18,2.48-2.84,4.53-5,6.15-2.16,1.62-4.78,2.82-7.87,3.6s-6.46,1.18-10.14,1.18c-3.2,0-6.35-.34-9.45-1.01-3.1-.67-5.68-1.63-7.74-2.85v-9.75c2.91,1.35,5.74,2.33,8.51,2.94,2.76.61,5.61.92,8.55.92,1.7,0,3.38-.15,5.02-.45,1.65-.3,3.12-.81,4.43-1.53,1.31-.72,2.36-1.7,3.15-2.94.79-1.24,1.19-2.77,1.19-4.59Z"/>
  <rect class="cls-4" x="676.31" y="119.72" width="32.28" height="13.9"/>
  <path class="cls-4" d="M737.99,70.53h-13.59v16.77h13.59v.03c18.2,0,32.96,12.31,32.96,27.5,0,13.46-11.59,24.65-26.9,27.03v-47.75h-19.65v65.01h13.59c29.32,0,53.09-19.83,53.09-44.3s-23.77-44.3-53.09-44.3Z"/>
</svg>